<svg version="1.1" xmlns="http://www.w3.org/2000/svg" viewBox="-2273.280047798157 -1490.43201751709 4652.03211364746 2264.064047241211"><desc>Created with Snap</desc><defs></defs><g><g transform="matrix(54.9888,0,0,54.9888,-2021.0688,-1238.2208)"><g transform="translate(0,-1020.3622)"><path style="color: rgb(0, 0, 0); font: medium sans-serif; text-indent: 0px; text-align: start; text-decoration: none solid rgb(0, 0, 0); letter-spacing: normal; word-spacing: normal; text-transform: none; direction: ltr; writing-mode: lr-tb; baseline-shift: baseline; text-anchor: start; white-space: normal; clip-rule: nonzero; display: inline; overflow: visible; visibility: visible; opacity: 1; isolation: auto; mix-blend-mode: normal; color-interpolation: srgb; color-interpolation-filters: linearrgb; fill-opacity: 1; fill-rule: evenodd; stroke: none; stroke-width: 1px; stroke-linecap: butt; stroke-linejoin: miter; stroke-miterlimit: 4; stroke-dasharray: none; stroke-dashoffset: 0; stroke-opacity: 1; color-rendering: auto; image-rendering: auto; shape-rendering: auto; text-rendering: auto;" d="M 15 1 C 12.796783 1 11 2.7968 11 5 C 11 5.6546295 11.174294 6.2621942 11.455078 6.8085938 L 5.1347656 12.226562 C 4.7841998 12.082202 4.4012682 12 4 12 C 2.3490681 12 1 13.3491 1 15 C 1 16.651 2.3490681 18 4 18 C 4.3223201 18 4.6284069 17.934891 4.9199219 17.839844 L 10.457031 27.068359 C 10.170848 27.474845 10 27.968062 10 28.5 C 10 29.8748 11.12521 31 12.5 31 C 13.747095 31 14.780132 30.071238 14.962891 28.873047 L 25.037109 25.515625 C 25.449884 25.816605 25.953124 26 26.5 26 C 27.87479 26 29 24.8748 29 23.5 C 29 22.943704 28.810453 22.432176 28.5 22.015625 L 29.455078 9.6035156 C 30.370789 9.0885994 31 8.1207185 31 7 C 31 5.3491 29.650932 4 28 4 C 27.134284 4 26.357302 4.3758715 25.808594 4.9667969 L 18.839844 3.9453125 C 18.372859 2.2544815 16.835947 1 15 1 z M 15 2 C 16.662777 2 18 3.3373 18 5 C 18 6.6628 16.662777 8 15 8 C 13.337223 8 12 6.6628 12 5 C 12 3.3373 13.337223 2 15 2 z M 18.998047 4.9785156 L 25.21875 5.8925781 C 25.081111 6.2360264 25 6.6086946 25 7 C 25 7.9000535 25.408807 8.7010389 26.041016 9.2519531 L 19.875 15.417969 C 19.479439 15.155095 19.007772 15 18.5 15 C 17.509241 15 16.655742 15.588652 16.251953 16.429688 L 6.9414062 15.583984 C 6.9792633 15.39441 7 15.200338 7 15 C 7 14.124925 6.6138374 13.342483 6.0117188 12.792969 L 12.021484 7.640625 C 12.755152 8.4670166 13.812384 9 15 9 C 17.203217 9 19 7.2032 19 5 C 19 4.9926553 18.998087 4.9858513 18.998047 4.9785156 z M 28 5 C 29.110492 5 30 5.8895 30 7 C 30 8.1105 29.110492 9 28 9 C 26.889508 9 26 8.1105 26 7 C 26 5.8895 26.889508 5 28 5 z M 26.917969 9.7890625 C 27.254532 9.9204133 27.618193 10 28 10 C 28.145621 10 28.285576 9.9753505 28.425781 9.9550781 L 27.556641 21.244141 C 27.234205 21.091786 26.878567 21 26.5 21 C 25.967136 21 25.475247 21.171889 25.068359 21.458984 L 20.626953 18.792969 C 20.859124 18.413878 21 17.974607 21 17.5 C 21 16.992527 20.846572 16.518465 20.583984 16.123047 L 26.917969 9.7890625 z M 4 13 C 5.1104918 13 6 13.8895 6 15 C 6 16.1105 5.1104918 17 4 17 C 2.8895082 17 2 16.1105 2 15 C 2 13.8895 2.8895082 13 4 13 z M 18.5 16 C 19.334349 16 20 16.6657 20 17.5 C 20 18.3344 19.334349 19 18.5 19 C 17.665651 19 17 18.3344 17 17.5 C 17 16.6657 17.665651 16 18.5 16 z M 6.5527344 16.552734 L 16.009766 17.412109 C 16.008703 17.441867 16 17.469995 16 17.5 C 16 18.8748 17.12521 20 18.5 20 C 19.031925 20 19.523206 19.827189 19.929688 19.541016 L 24.371094 22.207031 C 24.13977 22.585631 24 23.026333 24 23.5 C 24 23.937372 24.122695 24.342517 24.322266 24.701172 L 14.900391 27.841797 C 14.608509 26.785121 13.646095 26 12.5 26 C 12.025542 26 11.586046 26.141008 11.207031 26.373047 L 5.8085938 17.375 C 6.1047653 17.148637 6.3574473 16.871712 6.5527344 16.552734 z M 26.5 22 C 27.334349 22 28 22.6657 28 23.5 C 28 24.3344 27.334349 25 26.5 25 C 25.665651 25 25 24.3344 25 23.5 C 25 22.6657 25.665651 22 26.5 22 z M 12.5 27 C 13.334349 27 14 27.6657 14 28.5 C 14 29.3344 13.334349 30 12.5 30 C 11.665651 30 11 29.3344 11 28.5 C 11 27.6657 11.665651 27 12.5 27 z " transform="translate(0,1020.3622)" fill="#0f4c5c"></path></g><desc>Created with Snap</desc><defs></defs></g><g><g transform="matrix(1.024,0,0,-1.024,0,0)"><path d="M195 -8Q132 -8 78 18Q24 45 -9 93L49 161Q107 78 195 78Q254 78 284 114Q315 150 315 220L315 613L62 613L62 700L414 700L414 225Q414 109 358 50Q303 -8 195 -8ZM934 -8Q828 -8 743 38Q658 85 609 167Q561 249 561 350Q561 451 609 533Q658 615 743 661Q828 708 934 708Q1039 708 1124 661Q1209 615 1257 533Q1305 452 1305 350Q1305 248 1257 166Q1209 85 1124 38Q1039 -8 934 -8ZM934 81Q1011 81 1072 116Q1134 151 1169 212Q1205 274 1205 350Q1205 426 1169 487Q1134 549 1072 584Q1011 619 934 619Q857 619 794 584Q732 549 696 487Q661 426 661 350Q661 274 696 212Q732 151 794 116Q857 81 934 81ZM1731 700Q1867 700 1945 635Q2023 570 2023 456Q2023 342 1945 277Q1867 212 1731 212L1558 212L1558 0L1458 0L1458 700L1731 700ZM1728 299Q1823 299 1873 339Q1923 380 1923 456Q1923 532 1873 572Q1823 613 1728 613L1558 613L1558 299L1728 299Z" fill="#5f0f40" style=""></path></g></g></g></svg>